<svg width="248" height="28" viewBox="0 0 248 28" fill="none" xmlns="http://www.w3.org/2000/svg">
<path d="M0.285714 0.571427H2.57143V2.85714H0.285714V0.571427ZM2.57143 0.571427H4.85714V2.85714H2.57143V0.571427ZM4.85714 0.571427H7.14286V2.85714H4.85714V0.571427ZM7.14286 0.571427H9.42857V2.85714H7.14286V0.571427ZM9.42857 0.571427H11.7143V2.85714H9.42857V0.571427ZM11.7143 0.571427H14V2.85714H11.7143V0.571427ZM14 0.571427H16.2857V2.85714H14V0.571427ZM16.2857 0.571427H18.5714V2.85714H16.2857V0.571427ZM4.85714 2.85714H7.14286V5.14286H4.85714V2.85714ZM7.14286 2.85714H9.42857V5.14286H7.14286V2.85714ZM9.42857 2.85714H11.7143V5.14286H9.42857V2.85714ZM11.7143 2.85714H14V5.14286H11.7143V2.85714ZM14 2.85714H16.2857V5.14286H14V2.85714ZM16.2857 2.85714H18.5714V5.14286H16.2857V2.85714ZM4.85714 7.42857H7.14286V9.71429H4.85714V7.42857ZM7.14286 7.42857H9.42857V9.71429H7.14286V7.42857ZM7.14286 9.71429H9.42857V12H7.14286V9.71429ZM4.85714 9.71429H7.14286V12H4.85714V9.71429ZM4.85714 14.2857H7.14286V16.5714H4.85714V14.2857ZM7.14286 14.2857H9.42857V16.5714H7.14286V14.2857ZM7.14286 16.5714H9.42857V18.8571H7.14286V16.5714ZM4.85714 18.8571H7.14286V21.1429H4.85714V18.8571ZM7.14286 18.8571H9.42857V21.1429H7.14286V18.8571ZM0.285714 25.7143H2.57143V28H0.285714V25.7143ZM0.285714 9.71429H2.57143V12H0.285714V9.71429ZM2.57143 9.71429H4.85714V12H2.57143V9.71429ZM4.85714 12H7.14286V14.2857H4.85714V12ZM7.14286 12H9.42857V14.2857H7.14286V12ZM0.285714 14.2857H2.57143V16.5714H0.285714V14.2857ZM2.57143 14.2857H4.85714V16.5714H2.57143V14.2857ZM4.85714 16.5714H7.14286V18.8571H4.85714V16.5714ZM2.57143 23.4286H4.85714V25.7143H2.57143V23.4286ZM4.85714 23.4286H7.14286V25.7143H4.85714V23.4286ZM7.14286 23.4286H9.42857V25.7143H7.14286V23.4286ZM9.42857 23.4286H11.7143V25.7143H9.42857V23.4286ZM11.7143 23.4286H14V25.7143H11.7143V23.4286ZM14 23.4286H16.2857V25.7143H14V23.4286ZM16.2857 23.4286H18.5714V25.7143H16.2857V23.4286ZM7.14286 25.7143H9.42857V28H7.14286V25.7143ZM9.42857 25.7143H11.7143V28H9.42857V25.7143ZM11.7143 25.7143H14V28H11.7143V25.7143ZM14 25.7143H16.2857V28H14V25.7143ZM11.7143 18.8571H14V21.1429H11.7143V18.8571ZM11.7143 16.5714H14V18.8571H11.7143V16.5714ZM11.7143 14.2857H14V16.5714H11.7143V14.2857ZM11.7143 12H14V14.2857H11.7143V12ZM11.7143 9.71429H14V12H11.7143V9.71429ZM11.7143 7.42857H14V9.71429H11.7143V7.42857ZM11.7143 5.14286H14V7.42857H11.7143V5.14286ZM18.5714 5.14286H20.8571V7.42857H18.5714V5.14286ZM18.5714 7.42857H20.8571V9.71429H18.5714V7.42857ZM18.5714 9.71429H20.8571V12H18.5714V9.71429ZM18.5714 12H20.8571V14.2857H18.5714V12ZM18.5714 14.2857H20.8571V16.5714H18.5714V14.2857ZM18.5714 16.5714H20.8571V18.8571H18.5714V16.5714ZM20.8571 5.14286H23.1429V7.42857H20.8571V5.14286ZM20.8571 7.42857H23.1429V9.71429H20.8571V7.42857ZM20.8571 9.71429H23.1429V12H20.8571V9.71429ZM20.8571 12H23.1429V14.2857H20.8571V12ZM20.8571 14.2857H23.1429V16.5714H20.8571V14.2857ZM18.5714 0.571427H20.8571V2.85714H18.5714V0.571427ZM18.5714 2.85714H20.8571V5.14286H18.5714V2.85714ZM20.8571 2.85714H23.1429V5.14286H20.8571V2.85714ZM18.5714 18.8571H20.8571V21.1429H18.5714V18.8571ZM20.8571 18.8571H23.1429V21.1429H20.8571V18.8571ZM20.8571 16.5714H23.1429V18.8571H20.8571V16.5714ZM18.5714 21.1429H20.8571V23.4286H18.5714V21.1429ZM27.6964 23.4286H29.9821V25.7143H27.6964V23.4286ZM29.9821 23.4286H32.2679V25.7143H29.9821V23.4286ZM32.2679 23.4286H34.5536V25.7143H32.2679V23.4286ZM34.5536 23.4286H36.8393V25.7143H34.5536V23.4286ZM29.9821 25.7143H32.2679V28H29.9821V25.7143ZM32.2679 25.7143H34.5536V28H32.2679V25.7143ZM25.4107 23.4286H27.6964V25.7143H25.4107V23.4286ZM27.6964 21.1429H29.9821V23.4286H27.6964V21.1429ZM27.6964 18.8571H29.9821V21.1429H27.6964V18.8571ZM27.6964 16.5714H29.9821V18.8571H27.6964V16.5714ZM29.9821 21.1429H32.2679V23.4286H29.9821V21.1429ZM29.9821 18.8571H32.2679V21.1429H29.9821V18.8571ZM29.9821 16.5714H32.2679V18.8571H29.9821V16.5714ZM29.9821 14.2857H32.2679V16.5714H29.9821V14.2857ZM36.8393 12H39.125V14.2857H36.8393V12ZM36.8393 14.2857H39.125V16.5714H36.8393V14.2857ZM39.125 14.2857H41.4107V16.5714H39.125V14.2857ZM36.8393 16.5714H39.125V18.8571H36.8393V16.5714ZM39.125 16.5714H41.4107V18.8571H39.125V16.5714ZM39.125 18.8571H41.4107V21.1429H39.125V18.8571ZM36.8393 18.8571H39.125V21.1429H36.8393V18.8571ZM36.8393 21.1429H39.125V23.4286H36.8393V21.1429ZM39.125 21.1429H41.4107V23.4286H39.125V21.1429ZM36.8393 23.4286H39.125V25.7143H36.8393V23.4286ZM36.8393 25.7143H39.125V28H36.8393V25.7143ZM39.125 25.7143H41.4107V28H39.125V25.7143ZM39.125 23.4286H41.4107V25.7143H39.125V23.4286ZM41.4107 23.4286H43.6964V25.7143H41.4107V23.4286ZM32.2679 9.71429H34.5536V12H32.2679V9.71429ZM34.5536 9.71429H36.8393V12H34.5536V9.71429ZM36.8393 9.71429H39.125V12H36.8393V9.71429ZM41.4107 12H43.6964V14.2857H41.4107V12ZM39.125 12H41.4107V14.2857H39.125V12ZM29.9821 12H32.2679V14.2857H29.9821V12ZM27.6964 14.2857H29.9821V16.5714H27.6964V14.2857ZM45.9888 23.4286H48.2746V25.7143H45.9888V23.4286ZM48.2746 23.4286H50.5603V25.7143H48.2746V23.4286ZM50.5603 23.4286H52.846V25.7143H50.5603V23.4286ZM52.846 23.4286H55.1317V25.7143H52.846V23.4286ZM48.2746 25.7143H50.5603V28H48.2746V25.7143ZM50.5603 25.7143H52.846V28H50.5603V25.7143ZM50.5603 21.1429H52.846V23.4286H50.5603V21.1429ZM48.2746 21.1429H50.5603V23.4286H48.2746V21.1429ZM48.2746 18.8571H50.5603V21.1429H48.2746V18.8571ZM48.2746 16.5714H50.5603V18.8571H48.2746V16.5714ZM50.5603 16.5714H52.846V18.8571H50.5603V16.5714ZM50.5603 14.2857H52.846V16.5714H50.5603V14.2857ZM50.5603 18.8571H52.846V21.1429H50.5603V18.8571ZM48.2746 14.2857H50.5603V16.5714H48.2746V14.2857ZM48.2746 12H50.5603V14.2857H48.2746V12ZM50.5603 12H52.846V14.2857H50.5603V12ZM50.5603 9.71429H52.846V12H50.5603V9.71429ZM48.2746 9.71429H50.5603V12H48.2746V9.71429ZM45.9888 12H48.2746V14.2857H45.9888V12ZM52.846 12H55.1317V14.2857H52.846V12ZM50.5603 2.85714H52.846V5.14286H50.5603V2.85714ZM48.2746 2.85714H50.5603V5.14286H48.2746V2.85714ZM48.2746 0.571427H50.5603V2.85714H48.2746V0.571427ZM50.5603 0.571427H52.846V2.85714H50.5603V0.571427ZM59.7121 25.7143H61.9978V28H59.7121V25.7143ZM61.9978 25.7143H64.2835V28H61.9978V25.7143ZM57.4263 23.4286H59.7121V25.7143H57.4263V23.4286ZM59.7121 23.4286H61.9978V25.7143H59.7121V23.4286ZM61.9978 23.4286H64.2835V25.7143H61.9978V23.4286ZM64.2835 23.4286H66.5692V25.7143H64.2835V23.4286ZM59.7121 21.1429H61.9978V23.4286H59.7121V21.1429ZM61.9978 21.1429H64.2835V23.4286H61.9978V21.1429ZM61.9978 18.8571H64.2835V21.1429H61.9978V18.8571ZM61.9978 16.5714H64.2835V18.8571H61.9978V16.5714ZM59.7121 16.5714H61.9978V18.8571H59.7121V16.5714ZM59.7121 14.2857H61.9978V16.5714H59.7121V14.2857ZM59.7121 12H61.9978V14.2857H59.7121V12ZM59.7121 18.8571H61.9978V21.1429H59.7121V18.8571ZM61.9978 14.2857H64.2835V16.5714H61.9978V14.2857ZM61.9978 12H64.2835V14.2857H61.9978V12ZM61.9978 9.71429H64.2835V12H61.9978V9.71429ZM61.9978 2.85714H64.2835V5.14286H61.9978V2.85714ZM61.9978 5.14286H64.2835V7.42857H61.9978V5.14286ZM61.9978 7.42857H64.2835V9.71429H61.9978V7.42857ZM59.7121 9.71429H61.9978V12H59.7121V9.71429ZM59.7121 7.42857H61.9978V9.71429H59.7121V7.42857ZM59.7121 5.14286H61.9978V7.42857H59.7121V5.14286ZM59.7121 2.85714H61.9978V5.14286H59.7121V2.85714ZM61.9978 0.571427H64.2835V2.85714H61.9978V0.571427ZM68.8638 25.7143H71.1496V28H68.8638V25.7143ZM71.1496 23.4286H73.4353V25.7143H71.1496V23.4286ZM73.4353 21.1429H75.721V23.4286H73.4353V21.1429ZM75.721 18.8571H78.0067V21.1429H75.721V18.8571ZM75.721 16.5714H78.0067V18.8571H75.721V16.5714ZM73.4353 23.4286H75.721V25.7143H73.4353V23.4286ZM75.721 23.4286H78.0067V25.7143H75.721V23.4286ZM78.0067 23.4286H80.2924V25.7143H78.0067V23.4286ZM80.2924 23.4286H82.5781V25.7143H80.2924V23.4286ZM82.5781 21.1429H84.8638V23.4286H82.5781V21.1429ZM78.0067 25.7143H80.2924V28H78.0067V25.7143ZM75.721 25.7143H78.0067V28H75.721V25.7143ZM80.2924 16.5714H82.5781V18.8571H80.2924V16.5714ZM82.5781 16.5714H84.8638V18.8571H82.5781V16.5714ZM87.1496 16.5714H89.4353V18.8571H87.1496V16.5714ZM89.4353 16.5714H91.721V18.8571H89.4353V16.5714ZM89.4353 18.8571H91.721V21.1429H89.4353V18.8571ZM89.4353 21.1429H91.721V23.4286H89.4353V21.1429ZM89.4353 23.4286H91.721V25.7143H89.4353V23.4286ZM87.1496 23.4286H89.4353V25.7143H87.1496V23.4286ZM87.1496 21.1429H89.4353V23.4286H87.1496V21.1429ZM87.1496 18.8571H89.4353V21.1429H87.1496V18.8571ZM91.721 23.4286H94.0067V25.7143H91.721V23.4286ZM94.0067 23.4286H96.2924V25.7143H94.0067V23.4286ZM96.2924 21.1429H98.5781V23.4286H96.2924V21.1429ZM91.721 25.7143H94.0067V28H91.721V25.7143ZM89.4353 25.7143H91.721V28H89.4353V25.7143ZM87.1496 14.2857H89.4353V16.5714H87.1496V14.2857ZM84.8638 14.2857H87.1496V16.5714H84.8638V14.2857ZM84.8638 12H87.1496V14.2857H84.8638V12ZM84.8638 9.71429H87.1496V12H84.8638V9.71429ZM87.1496 9.71429H89.4353V12H87.1496V9.71429ZM87.1496 12H89.4353V14.2857H87.1496V12ZM87.1496 7.42857H89.4353V9.71429H87.1496V7.42857ZM84.8638 7.42857H87.1496V9.71429H84.8638V7.42857ZM84.8638 5.14286H87.1496V7.42857H84.8638V5.14286ZM87.1496 5.14286H89.4353V7.42857H87.1496V5.14286ZM89.4353 0.571427H91.721V2.85714H89.4353V0.571427ZM91.721 0.571427H94.0067V2.85714H91.721V0.571427ZM94.0067 2.85714H96.2924V5.14286H94.0067V2.85714ZM87.1496 2.85714H89.4353V5.14286H87.1496V2.85714ZM84.8638 2.85714H87.1496V5.14286H84.8638V2.85714ZM82.5781 0.571427H84.8638V2.85714H82.5781V0.571427ZM80.2924 0.571427H82.5781V2.85714H80.2924V0.571427ZM78.0067 0.571427H80.2924V2.85714H78.0067V0.571427ZM75.721 0.571427H78.0067V2.85714H75.721V0.571427ZM73.4353 0.571427H75.721V2.85714H73.4353V0.571427ZM71.1496 2.85714H73.4353V5.14286H71.1496V2.85714ZM68.8638 5.14286H71.1496V7.42857H68.8638V5.14286ZM78.0067 2.85714H80.2924V5.14286H78.0067V2.85714ZM80.2924 2.85714H82.5781V5.14286H80.2924V2.85714ZM82.5781 2.85714H84.8638V5.14286H82.5781V2.85714ZM82.5781 5.14286H84.8638V7.42857H82.5781V5.14286ZM80.2924 7.42857H82.5781V9.71429H80.2924V7.42857ZM80.2924 9.71429H82.5781V12H80.2924V9.71429ZM78.0067 9.71429H80.2924V12H78.0067V9.71429ZM78.0067 7.42857H80.2924V9.71429H78.0067V7.42857ZM75.721 7.42857H78.0067V9.71429H75.721V7.42857ZM73.4353 9.71429H75.721V12H73.4353V9.71429ZM78.0067 12H80.2924V14.2857H78.0067V12ZM78.0067 14.2857H80.2924V16.5714H78.0067V14.2857ZM100.879 18.8571H103.165V21.1429H100.879V18.8571ZM100.879 16.5714H103.165V18.8571H100.879V16.5714ZM100.879 14.2857H103.165V16.5714H100.879V14.2857ZM100.879 12H103.165V14.2857H100.879V12ZM103.165 12H105.451V14.2857H103.165V12ZM103.165 14.2857H105.451V16.5714H103.165V14.2857ZM103.165 16.5714H105.451V18.8571H103.165V16.5714ZM103.165 18.8571H105.451V21.1429H103.165V18.8571ZM103.165 21.1429H105.451V23.4286H103.165V21.1429ZM105.451 21.1429H107.737V23.4286H105.451V21.1429ZM105.451 23.4286H107.737V25.7143H105.451V23.4286ZM103.165 23.4286H105.451V25.7143H103.165V23.4286ZM107.737 23.4286H110.022V25.7143H107.737V23.4286ZM107.737 25.7143H110.022V28H107.737V25.7143ZM110.022 25.7143H112.308V28H110.022V25.7143ZM112.308 25.7143H114.594V28H112.308V25.7143ZM114.594 25.7143H116.879V28H114.594V25.7143ZM116.879 25.7143H119.165V28H116.879V25.7143ZM119.165 23.4286H121.451V25.7143H119.165V23.4286ZM121.451 23.4286H123.737V25.7143H121.451V23.4286ZM119.165 25.7143H121.451V28H119.165V25.7143ZM123.737 21.1429H126.022V23.4286H123.737V21.1429ZM100.879 9.71429H103.165V12H100.879V9.71429ZM103.165 9.71429H105.451V12H103.165V9.71429ZM103.165 7.42857H105.451V9.71429H103.165V7.42857ZM103.165 5.14286H105.451V7.42857H103.165V5.14286ZM105.451 2.85714H107.737V5.14286H105.451V2.85714ZM107.737 0.571427H110.022V2.85714H107.737V0.571427ZM107.737 9.71429H110.022V12H107.737V9.71429ZM110.022 9.71429H112.308V12H110.022V9.71429ZM107.737 14.2857H110.022V16.5714H107.737V14.2857ZM110.022 14.2857H112.308V16.5714H110.022V14.2857ZM112.308 14.2857H114.594V16.5714H112.308V14.2857ZM112.308 9.71429H114.594V12H112.308V9.71429ZM112.308 12H114.594V14.2857H112.308V12ZM112.308 16.5714H114.594V18.8571H112.308V16.5714ZM114.594 14.2857H116.879V16.5714H114.594V14.2857ZM114.594 12H116.879V14.2857H114.594V12ZM114.594 9.71429H116.879V12H114.594V9.71429ZM114.594 16.5714H116.879V18.8571H114.594V16.5714ZM110.022 21.1429H112.308V23.4286H110.022V21.1429ZM112.308 21.1429H114.594V23.4286H112.308V21.1429ZM112.308 18.8571H114.594V21.1429H112.308V18.8571ZM114.594 18.8571H116.879V21.1429H114.594V18.8571ZM119.165 18.8571H121.451V21.1429H119.165V18.8571ZM119.165 16.5714H121.451V18.8571H119.165V16.5714ZM119.165 14.2857H121.451V16.5714H119.165V14.2857ZM119.165 12H121.451V14.2857H119.165V12ZM119.165 9.71429H121.451V12H119.165V9.71429ZM119.165 7.42857H121.451V9.71429H119.165V7.42857ZM114.594 7.42857H116.879V9.71429H114.594V7.42857ZM112.308 7.42857H114.594V9.71429H112.308V7.42857ZM112.308 5.14286H114.594V7.42857H112.308V5.14286ZM114.594 5.14286H116.879V7.42857H114.594V5.14286ZM114.594 2.85714H116.879V5.14286H114.594V2.85714ZM116.879 0.571427H119.165V2.85714H116.879V0.571427ZM119.165 0.571427H121.451V2.85714H119.165V0.571427ZM119.165 2.85714H121.451V5.14286H119.165V2.85714ZM121.451 2.85714H123.737V5.14286H121.451V2.85714ZM123.737 0.571427H126.022V2.85714H123.737V0.571427ZM130.587 23.4286H132.873V25.7143H130.587V23.4286ZM132.873 23.4286H135.158V25.7143H132.873V23.4286ZM135.158 23.4286H137.444V25.7143H135.158V23.4286ZM137.444 23.4286H139.73V25.7143H137.444V23.4286ZM132.873 25.7143H135.158V28H132.873V25.7143ZM135.158 25.7143H137.444V28H135.158V25.7143ZM132.873 21.1429H135.158V23.4286H132.873V21.1429ZM135.158 21.1429H137.444V23.4286H135.158V21.1429ZM135.158 18.8571H137.444V21.1429H135.158V18.8571ZM135.158 16.5714H137.444V18.8571H135.158V16.5714ZM135.158 14.2857H137.444V16.5714H135.158V14.2857ZM132.873 14.2857H135.158V16.5714H132.873V14.2857ZM132.873 16.5714H135.158V18.8571H132.873V16.5714ZM132.873 18.8571H135.158V21.1429H132.873V18.8571ZM135.158 12H137.444V14.2857H135.158V12ZM132.873 12H135.158V14.2857H132.873V12ZM130.587 12H132.873V14.2857H130.587V12ZM128.301 12H130.587V14.2857H128.301V12ZM130.587 9.71429H132.873V12H130.587V9.71429ZM132.873 9.71429H135.158V12H132.873V9.71429ZM137.444 9.71429H139.73V12H137.444V9.71429ZM139.73 9.71429H142.016V12H139.73V9.71429ZM142.016 9.71429H144.301V12H142.016V9.71429ZM139.73 12H142.016V14.2857H139.73V12ZM142.016 12H144.301V14.2857H142.016V12ZM146.571 23.4286H148.857V25.7143H146.571V23.4286ZM144.286 23.4286H146.571V25.7143H144.286V23.4286ZM148.857 23.4286H151.143V25.7143H148.857V23.4286ZM146.571 25.7143H148.857V28H146.571V25.7143ZM148.857 25.7143H151.143V28H148.857V25.7143ZM146.571 18.8571H148.857V21.1429H146.571V18.8571ZM148.857 18.8571H151.143V21.1429H148.857V18.8571ZM148.857 16.5714H151.143V18.8571H148.857V16.5714ZM148.857 14.2857H151.143V16.5714H148.857V14.2857ZM146.571 14.2857H148.857V16.5714H146.571V14.2857ZM146.571 16.5714H148.857V18.8571H146.571V16.5714ZM148.857 12H151.143V14.2857H148.857V12ZM151.143 9.71429H153.429V12H151.143V9.71429ZM155.714 9.71429H158V12H155.714V9.71429ZM153.429 9.71429H155.714V12H153.429V9.71429ZM155.714 12H158V14.2857H155.714V12ZM151.143 23.4286H153.429V25.7143H151.143V23.4286ZM153.429 12H155.714V14.2857H153.429V12ZM158 12H160.286V14.2857H158V12ZM158 14.2857H160.286V16.5714H158V14.2857ZM155.714 14.2857H158V16.5714H155.714V14.2857ZM153.429 16.5714H155.714V18.8571H153.429V16.5714ZM151.143 16.5714H153.429V18.8571H151.143V16.5714ZM146.571 21.1429H148.857V23.4286H146.571V21.1429ZM148.857 21.1429H151.143V23.4286H148.857V21.1429ZM153.429 23.4286H155.714V25.7143H153.429V23.4286ZM164.853 23.4286H167.138V25.7143H164.853V23.4286ZM167.138 23.4286H169.424V25.7143H167.138V23.4286ZM169.424 23.4286H171.71V25.7143H169.424V23.4286ZM171.71 23.4286H173.996V25.7143H171.71V23.4286ZM167.138 25.7143H169.424V28H167.138V25.7143ZM169.424 25.7143H171.71V28H169.424V25.7143ZM162.567 23.4286H164.853V25.7143H162.567V23.4286ZM164.853 21.1429H167.138V23.4286H164.853V21.1429ZM164.853 18.8571H167.138V21.1429H164.853V18.8571ZM164.853 16.5714H167.138V18.8571H164.853V16.5714ZM167.138 21.1429H169.424V23.4286H167.138V21.1429ZM167.138 18.8571H169.424V21.1429H167.138V18.8571ZM167.138 16.5714H169.424V18.8571H167.138V16.5714ZM167.138 14.2857H169.424V16.5714H167.138V14.2857ZM173.996 12H176.281V14.2857H173.996V12ZM173.996 14.2857H176.281V16.5714H173.996V14.2857ZM176.281 14.2857H178.567V16.5714H176.281V14.2857ZM173.996 16.5714H176.281V18.8571H173.996V16.5714ZM176.281 16.5714H178.567V18.8571H176.281V16.5714ZM176.281 18.8571H178.567V21.1429H176.281V18.8571ZM173.996 18.8571H176.281V21.1429H173.996V18.8571ZM173.996 21.1429H176.281V23.4286H173.996V21.1429ZM176.281 21.1429H178.567V23.4286H176.281V21.1429ZM173.996 23.4286H176.281V25.7143H173.996V23.4286ZM173.996 25.7143H176.281V28H173.996V25.7143ZM176.281 25.7143H178.567V28H176.281V25.7143ZM176.281 23.4286H178.567V25.7143H176.281V23.4286ZM178.567 23.4286H180.853V25.7143H178.567V23.4286ZM169.424 9.71429H171.71V12H169.424V9.71429ZM171.71 9.71429H173.996V12H171.71V9.71429ZM173.996 9.71429H176.281V12H173.996V9.71429ZM178.567 12H180.853V14.2857H178.567V12ZM176.281 12H178.567V14.2857H176.281V12ZM167.138 12H169.424V14.2857H167.138V12ZM164.853 14.2857H167.138V16.5714H164.853V14.2857ZM183.145 23.4286H185.431V25.7143H183.145V23.4286ZM185.431 23.4286H187.717V25.7143H185.431V23.4286ZM187.717 23.4286H190.002V25.7143H187.717V23.4286ZM190.002 23.4286H192.288V25.7143H190.002V23.4286ZM192.288 23.4286H194.574V25.7143H192.288V23.4286ZM187.717 25.7143H190.002V28H187.717V25.7143ZM190.002 25.7143H192.288V28H190.002V25.7143ZM185.431 21.1429H187.717V23.4286H185.431V21.1429ZM187.717 21.1429H190.002V23.4286H187.717V21.1429ZM187.717 18.8571H190.002V21.1429H187.717V18.8571ZM187.717 16.5714H190.002V18.8571H187.717V16.5714ZM185.431 16.5714H187.717V18.8571H185.431V16.5714ZM185.431 18.8571H187.717V21.1429H185.431V18.8571ZM185.431 14.2857H187.717V16.5714H185.431V14.2857ZM187.717 14.2857H190.002V16.5714H187.717V14.2857ZM187.717 12H190.002V14.2857H187.717V12ZM187.717 9.71429H190.002V12H187.717V9.71429ZM185.431 12H187.717V14.2857H185.431V12ZM185.431 9.71429H187.717V12H185.431V9.71429ZM183.145 9.71429H185.431V12H183.145V9.71429ZM190.002 9.71429H192.288V12H190.002V9.71429ZM185.431 7.42857H187.717V9.71429H185.431V7.42857ZM187.717 7.42857H190.002V9.71429H187.717V7.42857ZM187.717 5.14286H190.002V7.42857H187.717V5.14286ZM185.431 5.14286H187.717V7.42857H185.431V5.14286ZM187.717 2.85714H190.002V5.14286H187.717V2.85714ZM192.288 9.71429H194.574V12H192.288V9.71429ZM196.879 23.4286H199.165V25.7143H196.879V23.4286ZM199.165 23.4286H201.451V25.7143H199.165V23.4286ZM201.451 23.4286H203.737V25.7143H201.451V23.4286ZM203.737 23.4286H206.022V25.7143H203.737V23.4286ZM199.165 25.7143H201.451V28H199.165V25.7143ZM201.451 25.7143H203.737V28H201.451V25.7143ZM201.451 21.1429H203.737V23.4286H201.451V21.1429ZM199.165 21.1429H201.451V23.4286H199.165V21.1429ZM199.165 18.8571H201.451V21.1429H199.165V18.8571ZM199.165 16.5714H201.451V18.8571H199.165V16.5714ZM201.451 16.5714H203.737V18.8571H201.451V16.5714ZM201.451 14.2857H203.737V16.5714H201.451V14.2857ZM201.451 18.8571H203.737V21.1429H201.451V18.8571ZM199.165 14.2857H201.451V16.5714H199.165V14.2857ZM199.165 12H201.451V14.2857H199.165V12ZM201.451 12H203.737V14.2857H201.451V12ZM201.451 9.71429H203.737V12H201.451V9.71429ZM199.165 9.71429H201.451V12H199.165V9.71429ZM196.879 12H199.165V14.2857H196.879V12ZM203.737 12H206.022V14.2857H203.737V12ZM201.451 2.85714H203.737V5.14286H201.451V2.85714ZM199.165 2.85714H201.451V5.14286H199.165V2.85714ZM199.165 0.571427H201.451V2.85714H199.165V0.571427ZM201.451 0.571427H203.737V2.85714H201.451V0.571427ZM208.317 9.71429H210.603V12H208.317V9.71429ZM210.603 9.71429H212.888V12H210.603V9.71429ZM212.888 9.71429H215.174V12H212.888V9.71429ZM210.603 12H212.888V14.2857H210.603V12ZM212.888 12H215.174V14.2857H212.888V12ZM215.174 12H217.46V14.2857H215.174V12ZM215.174 14.2857H217.46V16.5714H215.174V14.2857ZM215.174 16.5714H217.46V18.8571H215.174V16.5714ZM215.174 18.8571H217.46V21.1429H215.174V18.8571ZM215.174 21.1429H217.46V23.4286H215.174V21.1429ZM212.888 21.1429H215.174V23.4286H212.888V21.1429ZM212.888 18.8571H215.174V21.1429H212.888V18.8571ZM212.888 16.5714H215.174V18.8571H212.888V16.5714ZM212.888 14.2857H215.174V16.5714H212.888V14.2857ZM217.46 9.71429H219.746V12H217.46V9.71429ZM219.746 9.71429H222.031V12H219.746V9.71429ZM222.031 9.71429H224.317V12H222.031V9.71429ZM219.746 12H222.031V14.2857H219.746V12ZM222.031 12H224.317V14.2857H222.031V12ZM224.317 12H226.603V14.2857H224.317V12ZM226.603 12H228.888V14.2857H226.603V12ZM224.317 14.2857H226.603V16.5714H224.317V14.2857ZM224.317 16.5714H226.603V18.8571H224.317V16.5714ZM224.317 18.8571H226.603V21.1429H224.317V18.8571ZM224.317 21.1429H226.603V23.4286H224.317V21.1429ZM222.031 21.1429H224.317V23.4286H222.031V21.1429ZM222.031 18.8571H224.317V21.1429H222.031V18.8571ZM222.031 16.5714H224.317V18.8571H222.031V16.5714ZM222.031 14.2857H224.317V16.5714H222.031V14.2857ZM222.031 23.4286H224.317V25.7143H222.031V23.4286ZM219.746 23.4286H222.031V25.7143H219.746V23.4286ZM217.46 23.4286H219.746V25.7143H217.46V23.4286ZM215.174 23.4286H217.46V25.7143H215.174V23.4286ZM212.888 23.4286H215.174V25.7143H212.888V23.4286ZM210.603 23.4286H212.888V25.7143H210.603V23.4286ZM217.46 25.7143H219.746V28H217.46V25.7143ZM215.174 25.7143H217.46V28H215.174V25.7143ZM233.478 23.4286H235.763V25.7143H233.478V23.4286ZM231.192 23.4286H233.478V25.7143H231.192V23.4286ZM235.763 23.4286H238.049V25.7143H235.763V23.4286ZM233.478 25.7143H235.763V28H233.478V25.7143ZM235.763 25.7143H238.049V28H235.763V25.7143ZM233.478 18.8571H235.763V21.1429H233.478V18.8571ZM235.763 18.8571H238.049V21.1429H235.763V18.8571ZM235.763 16.5714H238.049V18.8571H235.763V16.5714ZM235.763 14.2857H238.049V16.5714H235.763V14.2857ZM233.478 14.2857H235.763V16.5714H233.478V14.2857ZM233.478 16.5714H235.763V18.8571H233.478V16.5714ZM235.763 12H238.049V14.2857H235.763V12ZM238.049 9.71429H240.335V12H238.049V9.71429ZM242.621 9.71429H244.906V12H242.621V9.71429ZM240.335 9.71429H242.621V12H240.335V9.71429ZM242.621 12H244.906V14.2857H242.621V12ZM238.049 23.4286H240.335V25.7143H238.049V23.4286ZM240.335 12H242.621V14.2857H240.335V12ZM244.906 12H247.192V14.2857H244.906V12ZM244.906 14.2857H247.192V16.5714H244.906V14.2857ZM242.621 14.2857H244.906V16.5714H242.621V14.2857ZM240.335 16.5714H242.621V18.8571H240.335V16.5714ZM238.049 16.5714H240.335V18.8571H238.049V16.5714ZM233.478 21.1429H235.763V23.4286H233.478V21.1429ZM235.763 21.1429H238.049V23.4286H235.763V21.1429ZM240.335 23.4286H242.621V25.7143H240.335V23.4286Z" fill="black"/>
</svg>
